<svg width="880" height="400" viewBox="0 0 880 400" xmlns="http://www.w3.org/2000/svg">
  <defs>
    <linearGradient id="bg" x1="0" y1="0" x2="1" y2="1">
      <stop offset="0%" stop-color="#0d1117"/>
      <stop offset="100%" stop-color="#161b22"/>
    </linearGradient>
    <linearGradient id="borderGlow" x1="0" y1="0" x2="1" y2="0">
      <stop offset="0%" stop-color="#58a6ff"/>
      <stop offset="50%" stop-color="#bc8cff"/>
      <stop offset="100%" stop-color="#39d353"/>
      <animate attributeName="x1" values="0%;100%;0%" dur="6s" repeatCount="indefinite"/>
      <animate attributeName="x2" values="100%;200%;100%" dur="6s" repeatCount="indefinite"/>
    </linearGradient>
    <linearGradient id="pill" x1="0" y1="0" x2="1" y2="0">
      <stop offset="0%" stop-color="#58a6ff"/>
      <stop offset="100%" stop-color="#bc8cff"/>
    </linearGradient>
  </defs>

  <rect x="3" y="3" width="874" height="394" rx="18" fill="none" stroke="url(#borderGlow)" stroke-width="2" opacity="0.75"/>
  <rect x="8" y="8" width="864" height="384" rx="15" fill="url(#bg)" stroke="#30363d" stroke-width="1"/>

  <path d="M 8 23 A 15 15 0 0 1 23 8 L 849 8 A 15 15 0 0 1 864 23 L 864 50 L 8 50 Z" fill="#161b22"/>
  <line x1="8" y1="50" x2="864" y2="50" stroke="#30363d" stroke-width="1"/>

  <circle cx="34" cy="29" r="6" fill="#ff5f56"/>
  <circle cx="54" cy="29" r="6" fill="#ffbd2e"/>
  <circle cx="74" cy="29" r="6" fill="#27c93f"/>

  <text x="440" y="34" text-anchor="middle" font-family="Consolas, 'SF Mono', 'Fira Code', monospace" font-size="13" fill="#8b949e">~/rameshkumar-v/snapshot.yaml</text>

  <rect x="734" y="17" width="122" height="24" rx="12" fill="url(#pill)" opacity="0.15"/>
  <rect x="734" y="17" width="122" height="24" rx="12" fill="none" stroke="url(#pill)" stroke-width="1"/>
  <g transform="translate(746,22) scale(0.5833)" fill="none" stroke="#bc8cff" stroke-width="2" stroke-linecap="round" stroke-linejoin="round">
    <path d="M16 18a2 2 0 0 1 2 2a2 2 0 0 1 2 -2a2 2 0 0 1 -2 -2a2 2 0 0 1 -2 2m0 -12a2 2 0 0 1 2 2a2 2 0 0 1 2 -2a2 2 0 0 1 -2 -2a2 2 0 0 1 -2 2m-7 12a6 6 0 0 1 6 -6a6 6 0 0 1 -6 -6a6 6 0 0 1 -6 6a6 6 0 0 1 6 6" />
  </g>
  <text x="768" y="33" font-family="Consolas, 'SF Mono', 'Fira Code', monospace" font-size="11" fill="#c9d1d9">AI-NATIVE</text>
  <circle cx="846" cy="29" r="3.5" fill="#39d353">
    <animate attributeName="opacity" values="1;0.3;1" dur="1.6s" repeatCount="indefinite"/>
  </circle>

  <g font-family="Consolas, 'SF Mono', 'Fira Code', monospace" font-size="15">
    <text x="20" y="90" fill="#484f58">1</text>
    <g transform="translate(44,72) scale(0.75)" fill="none" stroke="#ff7b72" stroke-width="2" stroke-linecap="round" stroke-linejoin="round">
      <path d="M3 9a2 2 0 0 1 2 -2h14a2 2 0 0 1 2 2v9a2 2 0 0 1 -2 2h-14a2 2 0 0 1 -2 -2l0 -9" />
      <path d="M8 7v-2a2 2 0 0 1 2 -2h4a2 2 0 0 1 2 2v2" />
      <path d="M12 12l0 .01" />
      <path d="M3 13a20 20 0 0 0 18 0" />
    </g>
    <text x="76" y="90" fill="#ff7b72">role:</text>
    <text x="230" y="90" fill="#a5d6ff">"AI Full-Stack Engineer"</text>

    <text x="20" y="130" fill="#484f58">2</text>
    <g transform="translate(44,112) scale(0.75)" fill="none" stroke="#ff7b72" stroke-width="2" stroke-linecap="round" stroke-linejoin="round">
      <path d="M22 9l-10 -4l-10 4l10 4l10 -4v6" />
      <path d="M6 10.6v5.4a6 3 0 0 0 12 0v-5.4" />
    </g>
    <text x="76" y="130" fill="#ff7b72">experience:</text>
    <text x="230" y="130" fill="#a5d6ff">"2 internships + independent AI/full-stack projects"</text>

    <text x="20" y="170" fill="#484f58">3</text>
    <g transform="translate(44,152) scale(0.75)" fill="none" stroke="#ff7b72" stroke-width="2" stroke-linecap="round" stroke-linejoin="round">
      <path d="M9 11a3 3 0 1 0 6 0a3 3 0 0 0 -6 0" />
      <path d="M17.657 16.657l-4.243 4.243a2 2 0 0 1 -2.827 0l-4.244 -4.243a8 8 0 1 1 11.314 0" />
    </g>
    <text x="76" y="170" fill="#ff7b72">location:</text>
    <text x="230" y="170" fill="#a5d6ff">"India"</text>

    <text x="20" y="210" fill="#484f58">4</text>
    <g transform="translate(44,192) scale(0.75)" fill="none" stroke="#ff7b72" stroke-width="2" stroke-linecap="round" stroke-linejoin="round">
      <path d="M4 13a8 8 0 0 1 7 7a6 6 0 0 0 3 -5a9 9 0 0 0 6 -8a3 3 0 0 0 -3 -3a9 9 0 0 0 -8 6a6 6 0 0 0 -5 3" />
      <path d="M7 14a6 6 0 0 0 -3 6a6 6 0 0 0 6 -3" />
      <path d="M14 9a1 1 0 1 0 2 0a1 1 0 1 0 -2 0" />
    </g>
    <text x="76" y="210" fill="#ff7b72">focus:</text>
    <text x="230" y="210" fill="#a5d6ff">"React/Next.js + FastAPI + Agentic AI"</text>

    <text x="20" y="250" fill="#484f58">5</text>
    <g transform="translate(44,232) scale(0.75)" fill="none" stroke="#ff7b72" stroke-width="2" stroke-linecap="round" stroke-linejoin="round">
      <path d="M15.5 13a3.5 3.5 0 0 0 -3.5 3.5v1a3.5 3.5 0 0 0 7 0v-1.8" />
      <path d="M8.5 13a3.5 3.5 0 0 1 3.5 3.5v1a3.5 3.5 0 0 1 -7 0v-1.8" />
      <path d="M17.5 16a3.5 3.5 0 0 0 0 -7h-.5" />
      <path d="M19 9.3v-2.8a3.5 3.5 0 0 0 -7 0" />
      <path d="M6.5 16a3.5 3.5 0 0 1 0 -7h.5" />
      <path d="M5 9.3v-2.8a3.5 3.5 0 0 1 7 0v10" />
    </g>
    <text x="76" y="250" fill="#ff7b72">learning:</text>
    <text x="230" y="250" fill="#a5d6ff">"Prompt · Context · Agentic Engineering"</text>

    <text x="20" y="290" fill="#484f58">6</text>
    <g transform="translate(44,272) scale(0.75)" fill="none" stroke="#ff7b72" stroke-width="2" stroke-linecap="round" stroke-linejoin="round">
      <path d="M11 12a1 1 0 1 0 2 0a1 1 0 1 0 -2 0" />
      <path d="M12 7a5 5 0 1 0 5 5" />
      <path d="M13 3.055a9 9 0 1 0 7.941 7.945" />
      <path d="M15 6v3h3l3 -3h-3v-3l-3 3" />
      <path d="M15 9l-3 3" />
    </g>
    <text x="76" y="290" fill="#ff7b72">open_to:</text>
    <text x="230" y="290" fill="#a5d6ff">"Full-time roles · AI product collaborations"</text>
  </g>

  <line x1="30" y1="315" x2="854" y2="315" stroke="#21262d" stroke-width="1"/>

  <g font-family="Consolas, 'SF Mono', 'Fira Code', monospace" font-size="14">
    <text x="20" y="345" fill="#484f58">7</text>
    <text x="46" y="345" fill="#7ee787">$</text>
    <text x="66" y="345" fill="#c9d1d9">./check-availability.sh</text>
    <rect x="252" y="333" width="9" height="15" fill="#c9d1d9">
      <animate attributeName="opacity" values="1;0;1" dur="0.9s" repeatCount="indefinite"/>
    </rect>
  </g>

  <path d="M 8 377 L 864 377 L 864 393 A 15 15 0 0 1 849 400 L 23 400 A 15 15 0 0 1 8 393 Z" fill="#161b22"/>
  <text x="20" y="392" font-family="Consolas, 'SF Mono', 'Fira Code', monospace" font-size="11" fill="#56d364">● online — open to new builds</text>
  <text x="860" y="392" text-anchor="end" font-family="Consolas, 'SF Mono', 'Fira Code', monospace" font-size="11" fill="#484f58" font-style="italic">// always shipping</text>
</svg>
