<svg width="880" height="400" viewBox="0 0 880 400" xmlns="http://www.w3.org/2000/svg">
  <defs>
    <linearGradient id="bg" x1="0" y1="0" x2="1" y2="1">
      <stop offset="0%" stop-color="#0d1117"/>
      <stop offset="100%" stop-color="#161b22"/>
    </linearGradient>
    <linearGradient id="borderGlow" x1="0" y1="0" x2="1" y2="0">
      <stop offset="0%" stop-color="#58a6ff"/>
      <stop offset="50%" stop-color="#bc8cff"/>
      <stop offset="100%" stop-color="#39d353"/>
      <animate attributeName="x1" values="0%;100%;0%" dur="6s" repeatCount="indefinite"/>
      <animate attributeName="x2" values="100%;200%;100%" dur="6s" repeatCount="indefinite"/>
    </linearGradient>
    <linearGradient id="pill" x1="0" y1="0" x2="1" y2="0">
      <stop offset="0%" stop-color="#58a6ff"/>
      <stop offset="100%" stop-color="#bc8cff"/>
    </linearGradient>
  </defs>

  <rect x="3" y="3" width="874" height="394" rx="18" fill="none" stroke="url(#borderGlow)" stroke-width="2" opacity="0.75"/>
  <rect x="8" y="8" width="864" height="384" rx="15" fill="url(#bg)" stroke="#30363d" stroke-width="1"/>

  <path d="M 8 23 A 15 15 0 0 1 23 8 L 849 8 A 15 15 0 0 1 864 23 L 864 50 L 8 50 Z" fill="#161b22"/>
  <line x1="8" y1="50" x2="864" y2="50" stroke="#30363d" stroke-width="1"/>

  <circle cx="34" cy="29" r="6" fill="#ff5f56"/>
  <circle cx="54" cy="29" r="6" fill="#ffbd2e"/>
  <circle cx="74" cy="29" r="6" fill="#27c93f"/>

  <text x="440" y="34" text-anchor="middle" font-family="Consolas, 'SF Mono', 'Fira Code', monospace" font-size="13" fill="#8b949e">~/rameshkumar-v/snapshot.yaml</text>

  <rect x="734" y="17" width="122" height="24" rx="12" fill="url(#pill)" opacity="0.15"/>
  <rect x="734" y="17" width="122" height="24" rx="12" fill="none" stroke="url(#pill)" stroke-width="1"/>
  <image href="https://api.iconify.design/tabler/sparkles.svg?color=%23bc8cff" x="746" y="22" width="14" height="14"/>
  <text x="768" y="33" font-family="Consolas, 'SF Mono', 'Fira Code', monospace" font-size="11" fill="#c9d1d9">AI-NATIVE</text>
  <circle cx="846" cy="29" r="3.5" fill="#39d353">
    <animate attributeName="opacity" values="1;0.3;1" dur="1.6s" repeatCount="indefinite"/>
  </circle>

  <g font-family="Consolas, 'SF Mono', 'Fira Code', monospace" font-size="15">
    <text x="20" y="90" fill="#484f58">1</text>
    <image href="https://api.iconify.design/tabler/briefcase.svg?color=%23ff7b72" x="44" y="72" width="18" height="18"/>
    <text x="76" y="90" fill="#ff7b72">role:</text>
    <text x="230" y="90" fill="#a5d6ff">"AI Full-Stack Engineer"</text>

    <text x="20" y="130" fill="#484f58">2</text>
    <image href="https://api.iconify.design/tabler/school.svg?color=%23ff7b72" x="44" y="112" width="18" height="18"/>
    <text x="76" y="130" fill="#ff7b72">experience:</text>
    <text x="230" y="130" fill="#a5d6ff">"2 internships + independent AI/full-stack projects"</text>

    <text x="20" y="170" fill="#484f58">3</text>
    <image href="https://api.iconify.design/tabler/map-pin.svg?color=%23ff7b72" x="44" y="152" width="18" height="18"/>
    <text x="76" y="170" fill="#ff7b72">location:</text>
    <text x="230" y="170" fill="#a5d6ff">"India"</text>

    <text x="20" y="210" fill="#484f58">4</text>
    <image href="https://api.iconify.design/tabler/rocket.svg?color=%23ff7b72" x="44" y="192" width="18" height="18"/>
    <text x="76" y="210" fill="#ff7b72">focus:</text>
    <text x="230" y="210" fill="#a5d6ff">"React/Next.js + FastAPI + Agentic AI"</text>

    <text x="20" y="250" fill="#484f58">5</text>
    <image href="https://api.iconify.design/tabler/brain.svg?color=%23ff7b72" x="44" y="232" width="18" height="18"/>
    <text x="76" y="250" fill="#ff7b72">learning:</text>
    <text x="230" y="250" fill="#a5d6ff">"Prompt · Context · Agentic Engineering"</text>

    <text x="20" y="290" fill="#484f58">6</text>
    <image href="https://api.iconify.design/tabler/target-arrow.svg?color=%23ff7b72" x="44" y="272" width="18" height="18"/>
    <text x="76" y="290" fill="#ff7b72">open_to:</text>
    <text x="230" y="290" fill="#a5d6ff">"Full-time roles · AI product collaborations"</text>
  </g>

  <line x1="30" y1="315" x2="854" y2="315" stroke="#21262d" stroke-width="1"/>

  <g font-family="Consolas, 'SF Mono', 'Fira Code', monospace" font-size="14">
    <text x="20" y="345" fill="#484f58">7</text>
    <text x="46" y="345" fill="#7ee787">$</text>
    <text x="66" y="345" fill="#c9d1d9">./check-availability.sh</text>
    <rect x="252" y="333" width="9" height="15" fill="#c9d1d9">
      <animate attributeName="opacity" values="1;0;1" dur="0.9s" repeatCount="indefinite"/>
    </rect>
  </g>

  <path d="M 8 377 L 864 377 L 864 393 A 15 15 0 0 1 849 400 L 23 400 A 15 15 0 0 1 8 393 Z" fill="#161b22"/>
  <text x="20" y="392" font-family="Consolas, 'SF Mono', 'Fira Code', monospace" font-size="11" fill="#56d364">● online — open to new builds</text>
  <text x="860" y="392" text-anchor="end" font-family="Consolas, 'SF Mono', 'Fira Code', monospace" font-size="11" fill="#484f58" font-style="italic">// always shipping</text>
</svg>
